<?xml version="1.0" encoding="utf-8"?>
<!-- Generator: Adobe Illustrator 24.1.2, SVG Export Plug-In . SVG Version: 6.00 Build 0)  -->
<svg version="1.1" id="Layer_1" xmlns="http://www.w3.org/2000/svg" xmlns:xlink="http://www.w3.org/1999/xlink" x="0px" y="0px"
	 viewBox="0 0 500 500" style="enable-background:new 0 0 500 500;" xml:space="preserve">
<style type="text/css">
	.st0{display:none;}
	.st1{display:inline;fill-rule:evenodd;clip-rule:evenodd;fill:none;stroke:#000000;stroke-width:12.8244;stroke-miterlimit:10;}
	.st2{display:inline;}
	.st3{display:inline;fill:#FEFEFE;}
	.st4{display:inline;fill-rule:evenodd;clip-rule:evenodd;}
	.st5{display:inline;fill:none;stroke:#000000;stroke-width:12.8244;stroke-miterlimit:10;}
	.st6{display:inline;fill:none;stroke:#000000;stroke-width:5.1851;stroke-linecap:round;stroke-miterlimit:10;}
	.st7{display:inline;opacity:0.3;fill-rule:evenodd;clip-rule:evenodd;}
	.st8{display:inline;opacity:0.3;}
	.st9{display:inline;fill:#FFFFFF;}
	.st10{display:inline;fill:none;stroke:#000000;stroke-width:14.3917;stroke-miterlimit:10;}
	.st11{fill:none;stroke:#000000;stroke-width:12.4396;stroke-linecap:round;stroke-miterlimit:10;}
	.st12{fill:none;stroke:#000000;stroke-width:12.4396;stroke-miterlimit:10;}
	.st13{fill:none;stroke:#000000;stroke-width:9.2153;stroke-miterlimit:10;}
	.st14{display:inline;fill-rule:evenodd;clip-rule:evenodd;fill:none;stroke:#000000;stroke-width:13.8596;stroke-miterlimit:10;}
	.st15{display:inline;fill:none;stroke:#000000;stroke-width:12.8244;stroke-linecap:round;stroke-miterlimit:10;}
	.st16{display:inline;fill:none;stroke:#000000;stroke-width:12.0549;stroke-miterlimit:10;}
	.st17{display:inline;fill:none;stroke:#000000;stroke-width:12.4396;stroke-miterlimit:10;}
	.st18{display:inline;fill:none;stroke:#000000;stroke-width:12.4396;stroke-linecap:round;stroke-miterlimit:10;}
	.st19{display:inline;fill:none;stroke:#000000;stroke-width:9.9371;stroke-linecap:round;stroke-miterlimit:10;}
	.st20{fill:none;stroke:#000000;stroke-width:11.6702;stroke-miterlimit:10;}
	.st21{fill:none;stroke:#000000;stroke-width:11.6701;stroke-linecap:round;stroke-miterlimit:10;}
	.st22{fill:none;stroke:#000000;stroke-width:12.8244;stroke-miterlimit:10;}
	.st23{display:inline;fill:none;stroke:#000000;stroke-width:12.8243;stroke-miterlimit:10;}
	.st24{display:inline;fill:#FFFF00;}
	.st25{display:inline;fill:#29ABE2;}
	.st26{display:inline;fill:#F7931E;}
	.st27{display:inline;fill:none;stroke:#000000;stroke-width:11.6702;stroke-miterlimit:10;}
	.st28{display:inline;fill:none;stroke:#FF00FF;stroke-width:11.6702;stroke-miterlimit:10;}
	.st29{display:inline;fill:none;stroke:#8CC63F;stroke-width:11.6702;stroke-miterlimit:10;}
	.st30{display:inline;fill:none;stroke:#C1272D;stroke-width:11.6701;stroke-linecap:round;stroke-miterlimit:10;}
	.st31{display:inline;fill:#C1272D;}
	.st32{display:inline;fill:#8CC63F;}
	.st33{display:inline;fill:#FF00FF;}
	.st34{display:inline;fill:#ED1C24;}
	.st35{display:inline;fill:none;stroke:#C1272D;stroke-width:12.4396;stroke-linecap:round;stroke-miterlimit:10;}
	.st36{display:inline;opacity:0.22;}
	.st37{display:inline;fill:#662D91;}
	.st38{display:inline;fill:#F15A24;}
	.st39{fill:#FFFFFF;}
	.st40{display:inline;fill:#00FF00;}
	.st41{display:inline;fill:#00FFFF;}
	.st42{fill:#D4145A;}
	.st43{fill:none;stroke:#000000;stroke-width:12.8244;stroke-linecap:round;stroke-miterlimit:10;}
	.st44{opacity:0.3;}
	.st45{display:inline;fill:#999999;}
	.st46{display:inline;fill-rule:evenodd;clip-rule:evenodd;fill:#ED1E79;}
	.st47{display:inline;fill:#009245;}
	.st48{display:inline;fill:none;stroke:#000000;stroke-width:9.2153;stroke-miterlimit:10;}
</style>
<g class="st0">
	<path class="st1" d="M326.85,202.22H172.97c-5.02,0-9.56,2.99-11.53,7.6L84.84,388.48c-3.55,8.28,2.52,17.49,11.53,17.49h307.06
		c9.01,0,15.08-9.21,11.53-17.49l-76.59-178.65C336.4,205.21,331.86,202.22,326.85,202.22z"/>
	<g class="st2">
		<path d="M309.92,262.26v59.16H189.89v-59.16H309.92 M320.05,252.13h-10.13H189.89h-10.13v10.13v59.16v10.13h10.13h120.03h10.13
			v-10.13v-59.16V252.13L320.05,252.13z"/>
	</g>
	<polygon class="st3" points="227.94,262.26 189.89,317.71 189.89,321.42 217.98,321.42 258.57,262.26 	"/>
	<polygon class="st3" points="309.92,262.26 281.84,262.26 241.24,321.42 271.88,321.42 309.92,265.97 	"/>
	<rect x="206.84" y="357.52" class="st4" width="86.13" height="13.54"/>
	<path class="st5" d="M287.94,171.14h-76.07c-11.05,0-20.01,8.96-20.01,20.01v11.07h116.09v-11.07
		C307.95,180.1,298.99,171.14,287.94,171.14z"/>
	<path class="st5" d="M292.72,137.03c0-23.65-19.17-42.82-42.82-42.82s-42.82,19.17-42.82,42.82v34.11h85.63V137.03z"/>
	<line class="st6" x1="250.22" y1="166.67" x2="249.36" y2="127.49"/>
	<path class="st6" d="M250.18,164.94c0,0-2.99-24.81,10.7-30.12"/>
	<path class="st6" d="M249.63,164.94c0,0,2.99-24.81-10.7-30.12"/>
	<circle class="st2" cx="196.69" cy="364.29" r="12.96"/>
	<circle class="st2" cx="303.13" cy="364.29" r="12.96"/>
	<path class="st7" d="M338.38,209.82c-1.98-4.61-6.51-7.6-11.53-7.6H172.97c-5.02,0-9.56,2.99-11.53,7.6l-3.85,8.99h184.65
		L338.38,209.82z"/>
	<rect x="189.89" y="262.26" class="st8" width="120.03" height="13.45"/>
</g>
<g class="st0">
	<circle class="st5" cx="144.7" cy="105.05" r="59.92"/>
	<path class="st5" d="M375.36,382.48c0-69.05-55.97-125.02-125.02-125.02s-125.02,55.97-125.02,125.02v72.59h250.04V382.48z"/>
	<line class="st5" x1="211.76" y1="262.91" x2="169.66" y2="159.52"/>
	<circle class="st2" cx="144.7" cy="105.05" r="25.35"/>
	<circle class="st5" cx="355.22" cy="105.05" r="59.92"/>
	<line class="st5" x1="288.16" y1="262.91" x2="330.26" y2="159.52"/>
	<circle class="st2" cx="355.22" cy="105.05" r="25.35"/>
	<path class="st2" d="M332.74,429.41h-164.8l0-43.21c54.93-27.24,109.86-27.24,164.8,0L332.74,429.41z"/>
	<polygon class="st9" points="221.56,419.36 193.62,419.36 193.62,391.41 221.56,384.64 	"/>
	<polygon class="st9" points="279.75,419.36 307.69,419.36 307.69,391.41 279.75,384.64 	"/>
	<path class="st10" d="M131.79,350.36c81.96-37.7,160.89-36.35,237.1,0"/>
	<path class="st8" d="M375.36,382.48c0-69.05-55.97-125.02-125.02-125.02s-125.02,55.97-125.02,125.02
		C188.43,237.88,324.11,250.84,375.36,382.48z"/>
</g>
<g class="st0">
	<g class="st2">
		<g>
			<path d="M154.45,274.12c23.33,0,42.24,18.91,42.24,42.24c0,23.33-18.91,42.24-42.24,42.24s-42.24-18.91-42.24-42.24
				C112.21,293.03,131.12,274.12,154.45,274.12 M154.45,261.68c-30.15,0-54.68,24.53-54.68,54.68s24.53,54.68,54.68,54.68
				s54.68-24.53,54.68-54.68S184.6,261.68,154.45,261.68L154.45,261.68z"/>
		</g>
		<circle cx="154.45" cy="313.51" r="23.33"/>
		<line class="st11" x1="213.41" y1="416.36" x2="291.35" y2="416.36"/>
		<path d="M28.49,315.04c-5.02,0.86-12.98,13.99-12.98,13.99s6.66,10.5,8.96,10.09c27.92-4.94,60.97-9.59,89-12.7
			c-0.79-3.23-1.26-6.59-1.26-10.06c0-4.61,0.76-9.04,2.13-13.19C87.37,306.08,55.36,310.45,28.49,315.04z M192.01,297.1
			c2.97,5.78,4.68,12.31,4.68,19.26c0,1.2-0.08,2.38-0.18,3.56c18.62-0.86,37.25-1.32,55.87-1.37v-23.04
			C232.25,295.58,212.13,296.12,192.01,297.1z"/>
		<g>
			<path d="M252.38,188.91c45.63,0,158.42,18.51,231.81,141.45c-45.5,64.15-108.64,104.18-194.29,113.44h-75.04
				c-85.64-9.26-148.79-49.29-194.29-113.44C93.96,207.42,206.75,188.91,252.38,188.91 M252.38,176.47
				c-16.6,0-60.61,2.51-110.73,25.78c-24.76,11.49-47.82,26.57-68.53,44.81c-24.2,21.31-45.47,47.19-63.22,76.93l-4.15,6.96
				l4.69,6.61c24.14,34.03,53.03,61.22,85.87,80.79c34.19,20.38,73.63,33.1,117.23,37.82l0.67,0.07h0.67h75.04h0.67l0.67-0.07
				c43.6-4.72,83.05-17.44,117.23-37.82c32.84-19.58,61.73-46.76,85.87-80.79l4.69-6.61l-4.15-6.96
				c-17.75-29.74-39.02-55.62-63.22-76.93c-20.72-18.24-43.77-33.31-68.53-44.81C312.99,178.98,268.97,176.47,252.38,176.47
				L252.38,176.47z"/>
		</g>
		<g>
			<path d="M350.31,274.12c23.33,0,42.24,18.91,42.24,42.24c0,23.33-18.91,42.24-42.24,42.24c-23.33,0-42.24-18.91-42.24-42.24
				C308.07,293.03,326.98,274.12,350.31,274.12 M350.31,261.68c-30.15,0-54.68,24.53-54.68,54.68s24.53,54.68,54.68,54.68
				s54.68-24.53,54.68-54.68S380.46,261.68,350.31,261.68L350.31,261.68z"/>
		</g>
		<circle cx="350.31" cy="313.51" r="23.33"/>
		<path d="M390.41,303.16c1.37,4.15,2.13,8.58,2.13,13.19c0,3.47-0.47,6.83-1.26,10.06c28.03,3.11,61.22,8.24,89.14,13.18
			c2.3,0.41,3.76-11.21,3.76-11.21s1.78-11.78-3.24-12.63C454.07,311.17,417.39,306.08,390.41,303.16z M252.38,295.51v23.04
			c18.63,0.05,37.25,0.51,55.87,1.37c-0.1-1.18-0.18-2.36-0.18-3.56c0-6.94,1.71-13.48,4.68-19.26
			C292.63,296.12,272.5,295.58,252.38,295.51z"/>
		<path class="st12" d="M251.16,185.42c0,0-7.49-126.23,85.75-117.1"/>
		<circle class="st13" cx="351.66" cy="69.66" r="13.46"/>
		<line class="st12" x1="350.31" y1="366.22" x2="350.31" y2="437.53"/>
		<line class="st12" x1="350.31" y1="265.69" x2="350.31" y2="203.66"/>
		<line class="st12" x1="154.45" y1="366.22" x2="154.45" y2="437.53"/>
		<line class="st12" x1="154.45" y1="265.69" x2="154.45" y2="203.66"/>
	</g>
	<path class="st8" d="M484.18,330.36C410.8,207.42,298.01,188.91,252.38,188.91S93.96,207.42,20.57,330.36
		C179.8,169.87,334.2,174.59,484.18,330.36z"/>
</g>
<g class="st0">
	<path class="st1" d="M332.79,174.27c-55.05-7.09-110.1-7.09-165.15,0c-19.46,2.51-35.74,15.98-42.14,34.53
		c-19.01,55.08-28.86,110.06-31.37,164.96c-0.46,10.11,7.68,18.54,17.8,18.54H388.5c10.12,0,18.26-8.43,17.8-18.54
		c-2.51-54.9-12.36-109.88-31.37-164.96C368.52,190.25,352.25,176.77,332.79,174.27z"/>
	<path class="st1" d="M325.33,294.55H175.1c-14.59,0-26.43-11.83-26.43-26.43v0c0-14.59,11.83-26.43,26.43-26.43h150.23
		c14.59,0,26.43,11.83,26.43,26.43v0C351.76,282.72,339.92,294.55,325.33,294.55z"/>
	<path class="st4" d="M400.88,328.16L400.88,328.16l-18.15-88.18h18.15c11.92,0,21.59,9.67,21.59,21.59v45
		C422.47,318.5,412.8,328.16,400.88,328.16z"/>
	<path class="st4" d="M99.55,328.16L99.55,328.16c-11.92,0-21.59-9.67-21.59-21.59v-45c0-11.92,9.67-21.59,21.59-21.59h18.15
		L99.55,328.16z"/>
	<path class="st4" d="M323.89,276.12H176.54c-4.41,0-7.99-3.58-7.99-7.99l0,0c0-4.41,3.58-7.99,7.99-7.99h147.34
		c4.41,0,7.99,3.58,7.99,7.99l0,0C331.88,272.54,328.3,276.12,323.89,276.12z"/>
	<rect x="391.13" y="148.65" class="st4" width="12.1" height="101.11"/>
	<rect x="97.2" y="148.65" class="st4" width="12.1" height="101.11"/>
	<circle class="st4" cx="103.25" cy="130.74" r="22.27"/>
	<circle class="st4" cx="397.18" cy="130.74" r="22.27"/>
	<rect x="208.22" y="332.37" class="st14" width="83.99" height="29.3"/>
	<rect x="226.52" y="337.38" class="st4" width="11.23" height="19.28"/>
	<rect x="244.56" y="337.38" class="st4" width="11.23" height="19.28"/>
	<rect x="262.67" y="337.38" class="st4" width="11.23" height="19.28"/>
	<path class="st7" d="M374.93,208.8c-6.4-18.55-22.68-32.03-42.14-34.53c-55.05-7.09-110.1-7.09-165.15,0
		c-19.46,2.51-35.74,15.98-42.14,34.53C125.5,177.95,374.93,177.95,374.93,208.8z"/>
	<path class="st8" d="M325.33,300.96H175.1c-16.75,0-30.59-12.62-32.57-28.84c-0.16,1.31-0.27,2.64-0.27,4
		c0,18.11,14.73,32.84,32.84,32.84h150.23c18.11,0,32.84-14.73,32.84-32.84c0-1.36-0.11-2.68-0.27-4
		C355.92,288.34,342.08,300.96,325.33,300.96z"/>
</g>
<g class="st0">
	<path class="st2" d="M217.31,183.36c0-13.01,14.09-23.56,31.47-23.56c17.38,0,31.47,10.55,31.47,23.56H217.31z"/>
	<path class="st5" d="M413.28,420.65H85.91c-14.8,0-26.79-11.99-26.79-26.79V221.8c0-14.8,11.99-26.79,26.79-26.79h327.37
		c14.8,0,26.79,11.99,26.79,26.79v172.06C440.07,408.66,428.07,420.65,413.28,420.65z"/>
	<path class="st2" d="M341.25,252.42H156.31c-18.64,0-33.75,15.11-33.75,33.76v11.95c0,18.64,15.11,33.76,33.75,33.76h184.94
		c18.64,0,33.75-15.11,33.75-33.76v-11.95C375.01,267.54,359.89,252.42,341.25,252.42z M168.1,320.85c-15.85,0-28.7-12.84-28.7-28.7
		c0-15.85,12.85-28.7,28.7-28.7c15.85,0,28.71,12.85,28.71,28.7C196.8,308.01,183.94,320.85,168.1,320.85z M329.47,320.85
		c-15.85,0-28.7-12.84-28.7-28.7c0-15.85,12.86-28.7,28.7-28.7c15.85,0,28.71,12.85,28.71,28.7
		C358.17,308.01,345.32,320.85,329.47,320.85z"/>
	<path class="st2" d="M168.1,270.47c-11.99,0-21.7,9.71-21.7,21.69c0,11.98,9.71,21.69,21.7,21.69c11.98,0,21.69-9.71,21.69-21.69
		C189.79,280.17,180.07,270.47,168.1,270.47z M168.09,300.63c-4.68,0-8.48-3.79-8.48-8.48s3.8-8.48,8.48-8.48
		c4.69,0,8.48,3.79,8.48,8.48S172.78,300.63,168.09,300.63z M329.47,270.47c-11.99,0-21.69,9.71-21.69,21.69
		c0,11.98,9.71,21.69,21.69,21.69c11.98,0,21.69-9.71,21.69-21.69C351.16,280.17,341.45,270.47,329.47,270.47z M329.47,300.63
		c-4.68,0-8.48-3.79-8.48-8.48s3.8-8.48,8.48-8.48c4.69,0,8.48,3.79,8.48,8.48S334.15,300.63,329.47,300.63z"/>
	<g class="st2">
		<rect x="158.06" y="363.29" width="23.93" height="23.93"/>
		<rect x="197.44" y="363.29" width="23.93" height="23.93"/>
		<rect x="236.82" y="363.29" width="23.93" height="23.93"/>
		<rect x="276.2" y="363.29" width="23.93" height="23.93"/>
		<rect x="315.58" y="363.29" width="23.93" height="23.93"/>
	</g>
	<line class="st5" x1="235.85" y1="171.58" x2="195.23" y2="103.72"/>
	<circle class="st2" cx="189.85" cy="95.26" r="16.03"/>
	<line class="st5" x1="261.72" y1="171.58" x2="302.33" y2="103.72"/>
	<circle class="st2" cx="307.72" cy="95.26" r="16.03"/>
	<path class="st8" d="M59.12,221.8c0-14.8,11.99-26.79,26.79-26.79h327.37c14.8,0,26.79,11.99,26.79,26.79H59.12z"/>
	<path class="st8" d="M341.25,331.89H156.31c-18.64,0-33.75-15.11-33.75-33.76v8.48c0,18.64,15.11,33.76,33.75,33.76h184.94
		c18.64,0,33.75-15.11,33.75-33.76v-8.48C375.01,316.77,359.89,331.89,341.25,331.89z"/>
</g>
<g class="st0">
	<polygon class="st2" points="94.62,258.07 70.96,270.07 67.86,313.12 88.06,324.93 	"/>
	<polygon class="st2" points="412.38,295.64 432.07,313.4 423.81,355.76 401.23,361.89 	"/>
	<circle class="st5" cx="252.78" cy="318.04" r="59.97"/>
	<circle class="st2" cx="255.48" cy="320.73" r="14.03"/>
	<line class="st15" x1="207.79" y1="411.43" x2="277.97" y2="421.76"/>
	<circle class="st5" cx="250.44" cy="306.7" r="160.33"/>
	<path class="st2" d="M327.47,127.1c-15.52-5.8-32.35-1.36-43.09,9.93c25.58,5.31,49,16.52,68.84,32.11
		C355.25,151.29,345.05,133.68,327.47,127.1z M362.46,33.5c-9.54-3.56-20.16,1.28-23.72,10.81c-2.91,7.79-0.15,16.25,6.14,21.05
		l-26.82,55.34c3.65,0.29,7.31,1.05,10.91,2.39c3.6,1.35,6.86,3.18,9.81,5.35l16.06-59.37c7.9,0.5,15.53-4.06,18.44-11.86
		C376.83,47.69,371.99,37.07,362.46,33.5z"/>
	<line class="st5" x1="183.46" y1="161.01" x2="221.9" y2="266.63"/>
	<line class="st5" x1="394.6" y1="236.47" x2="302.73" y2="284.86"/>
	<path class="st8" d="M410.76,306.7c0-88.55-71.78-160.33-160.33-160.33S90.11,218.16,90.11,306.7
		C158.2,121.77,346.25,141.69,410.76,306.7z"/>
	<circle class="st5" cx="252.78" cy="318.04" r="59.97"/>
	<path class="st8" d="M252.78,384.42c-34.44,0-62.83-26.36-66.06-59.97c-0.2,2.11-0.32,4.25-0.32,6.41
		c0,36.6,29.78,66.38,66.38,66.38s66.38-29.78,66.38-66.38c0-2.16-0.11-4.3-0.32-6.41C315.61,358.06,287.22,384.42,252.78,384.42z"
		/>
</g>
<g class="st0">
	<polygon class="st5" points="452.91,71.09 364.53,428.63 88.74,396.11 47.73,167.11 	"/>
	
		<rect x="150.16" y="348.34" transform="matrix(0.9939 0.1103 -0.1103 0.9939 41.2301 -16.1309)" class="st2" width="32.52" height="32.52"/>
	
		<rect x="192.92" y="353.09" transform="matrix(0.9939 0.1103 -0.1103 0.9939 42.0144 -20.8182)" class="st2" width="32.52" height="32.52"/>
	
		<rect x="235.67" y="357.83" transform="matrix(0.9939 0.1103 -0.1103 0.9939 42.7986 -25.5054)" class="st2" width="32.52" height="32.52"/>
	
		<rect x="278.43" y="362.58" transform="matrix(0.9939 0.1103 -0.1103 0.9939 43.5829 -30.1927)" class="st2" width="32.52" height="32.52"/>
	<circle class="st5" cx="154.73" cy="258.57" r="33.65"/>
	<circle class="st5" cx="279.17" cy="257.45" r="67.75"/>
	<circle class="st2" cx="284.59" cy="256.99" r="23.49"/>
	
		<rect x="388.47" y="323.18" transform="matrix(0.9712 0.2384 -0.2384 0.9712 94.3626 -85.8279)" class="st2" width="27.07" height="48.03"/>
	
		<rect x="51.03" y="307.27" transform="matrix(-0.9822 0.1876 -0.1876 -0.9822 190.1416 644.5709)" class="st2" width="27.07" height="48.03"/>
	<polygon class="st2" points="357.3,123.1 414.44,109.57 401.68,161.16 	"/>
	<line class="st5" x1="180.96" y1="237" x2="130.15" y2="281.02"/>
	<line class="st5" x1="130.15" y1="237" x2="180.96" y2="281.02"/>
	<polygon class="st8" points="47.73,167.11 452.91,71.09 446.39,97.48 53.88,201.47 	"/>
	<circle class="st5" cx="279.17" cy="257.45" r="67.75"/>
	<path class="st8" d="M282.32,331.53c-1.04,0.05-2.1,0.08-3.15,0.08c-1.06,0-2.11-0.03-3.15-0.08
		c-37.29-1.57-67.54-30.8-70.71-67.67c-0.18,2.12-0.3,4.25-0.3,6.41c0,40.89,33.27,74.16,74.16,74.16
		c40.89,0,74.16-33.27,74.16-74.16c0-2.16-0.11-4.3-0.3-6.41C349.86,300.72,319.61,329.96,282.32,331.53z"/>
</g>
<g class="st0">
	<path class="st16" d="M407.17,434.9c0,12.13-9.83,21.97-21.96,21.97H95.11c-12.13,0-21.96-9.83-21.96-21.97v-10.06
		c0-12.13,9.83-21.97,21.96-21.97h290.1c12.13,0,21.96,9.83,21.96,21.97V434.9z"/>
	<path class="st2" d="M264.48,233.73c0,13.68-11.09,24.76-24.77,24.76c-13.68,0-24.76-11.08-24.76-24.76
		c0-13.67,11.08-24.76,24.76-24.76C253.4,208.96,264.48,220.05,264.48,233.73z"/>
	<g class="st2">
		<path d="M185.13,355.46c0,7.87-6.37,14.25-14.25,14.25s-14.25-6.38-14.25-14.25c0-7.87,6.38-14.25,14.25-14.25
			S185.13,347.58,185.13,355.46z"/>
		<path d="M221.75,355.46c0,7.87-6.37,14.25-14.24,14.25c-7.87,0-14.25-6.38-14.25-14.25c0-7.87,6.38-14.25,14.25-14.25
			C215.38,341.21,221.75,347.58,221.75,355.46z"/>
		<path d="M258.39,355.46c0,7.87-6.37,14.25-14.24,14.25c-7.87,0-14.25-6.38-14.25-14.25c0-7.87,6.38-14.25,14.25-14.25
			C252.02,341.21,258.39,347.58,258.39,355.46z"/>
		<path d="M295.03,355.46c0,7.87-6.37,14.25-14.24,14.25c-7.87,0-14.25-6.38-14.25-14.25c0-7.87,6.38-14.25,14.25-14.25
			C288.65,341.21,295.03,347.58,295.03,355.46z"/>
		<path d="M331.66,355.46c0,7.87-6.38,14.25-14.25,14.25c-7.87,0-14.25-6.38-14.25-14.25c0-7.87,6.38-14.25,14.25-14.25
			C325.28,341.21,331.66,347.58,331.66,355.46z"/>
	</g>
	<line class="st16" x1="104.03" y1="164.13" x2="36.09" y2="122.05"/>
	<circle class="st2" cx="23.17" cy="114.76" r="18.93"/>
	<line class="st16" x1="396.65" y1="304.02" x2="464.58" y2="261.94"/>
	<circle class="st2" cx="477.51" cy="254.65" r="18.93"/>
	<circle class="st2" cx="434.46" cy="61.55" r="18.93"/>
	<circle class="st16" cx="239.16" cy="234.28" r="71.6"/>
	<path class="st16" d="M84.13,240.43v162.44h312.52V240.43c0-86.3-69.96-156.26-156.26-156.26S84.13,154.13,84.13,240.43z"/>
	<rect x="58.14" y="330.22" class="st2" width="25.99" height="52.87"/>
	<polyline class="st16" points="317.42,144.99 349.62,128.16 346.37,84.57 378.05,88.53 391.86,61.55 425.16,66.27 	"/>
	<line class="st16" x1="170.88" y1="100.45" x2="205.08" y2="171.3"/>
	<line class="st16" x1="305.22" y1="261.94" x2="396.65" y2="277.89"/>
	<path class="st8" d="M396.65,240.43c0-86.3-69.96-156.26-156.26-156.26S84.13,154.13,84.13,240.43
		C156.63,56.94,331.66,67.77,396.65,240.43z"/>
	<circle class="st16" cx="239.16" cy="234.28" r="71.6"/>
	<line class="st16" x1="305.22" y1="261.94" x2="396.65" y2="277.89"/>
	<circle class="st16" cx="239.16" cy="234.28" r="71.6"/>
	<line class="st16" x1="305.22" y1="261.94" x2="396.65" y2="277.89"/>
	<path class="st8" d="M395.61,283.83l-86.89-15.16c-12.11,24.39-36.66,41.52-65.3,43.08c-1.41,0.09-2.83,0.15-4.27,0.15
		c-40.77,0-74.28-31.6-77.37-71.6c-0.15,1.99-0.26,4-0.26,6.03c0,42.8,34.82,77.62,77.62,77.62c30.46,0,56.86-17.64,69.57-43.23
		l86.89,15.16l2.07-11.88l-2.04-0.36L395.61,283.83z"/>
</g>
<g class="st0">
	<ellipse class="st17" cx="248.61" cy="289.05" rx="180.7" ry="105.3"/>
	<path class="st18" d="M136.81,257.12c74.55,15.27,149.08,15.28,223.6,0"/>
	<line class="st18" x1="222.55" y1="319.46" x2="222.55" y2="342.52"/>
	<line class="st18" x1="274.67" y1="319.46" x2="274.67" y2="342.52"/>
	<line class="st18" x1="248.65" y1="300.85" x2="248.65" y2="360.78"/>
	<path class="st19" d="M206.99,186.56c4.54-18.79,21.47-32.75,41.66-32.75c20.19,0,37.12,13.96,41.66,32.76"/>
	<line class="st19" x1="248.65" y1="153.81" x2="248.65" y2="105.95"/>
	<line class="st19" x1="429.31" y1="289.05" x2="462.6" y2="289.05"/>
	<line class="st19" x1="34.62" y1="289.05" x2="67.91" y2="289.05"/>
	<line class="st18" x1="196.25" y1="326.63" x2="196.25" y2="336.06"/>
	<line class="st18" x1="300.89" y1="326.63" x2="300.89" y2="336.06"/>
	<circle class="st18" cx="477.39" cy="289.05" r="11.67"/>
	<circle class="st18" cx="22.95" cy="289.05" r="11.67"/>
	
		<rect x="78.3" y="197.32" transform="matrix(0.8367 -0.5477 0.5477 0.8367 -96.2643 94.7359)" class="st2" width="64.83" height="22.91"/>
	
		<rect x="353.81" y="197.32" transform="matrix(-0.8367 -0.5477 0.5477 -0.8367 595.0248 594.9926)" class="st2" width="64.83" height="22.91"/>
	<path class="st8" d="M67.91,289.05c0-58.15,80.9-105.3,180.7-105.3s180.7,47.14,180.7,105.3
		C429.31,182.02,67.91,182.02,67.91,289.05z"/>
</g>
<g class="st0">
	<g class="st2">
		<path class="st20" d="M347.74,380.43H151.96c-11,0-19.91-8.91-19.91-19.91v-145.8c0-11,8.91-19.91,19.91-19.91h195.79
			c11,0,19.91,8.91,19.91,19.91v145.8C367.65,371.52,358.74,380.43,347.74,380.43z"/>
		<polyline class="st20" points="132.05,289.54 96.66,272.63 74.64,298.97 54.58,278.92 29.42,278.92 		"/>
		<circle class="st20" cx="20.38" cy="278.56" r="10.62"/>
		<polyline class="st20" points="367.65,277.38 403.04,294.29 425.06,267.94 445.11,288 470.28,288 		"/>
		<circle class="st20" cx="479.31" cy="288.36" r="10.62"/>
		<path class="st21" d="M197.81,326.17c0.79,0.26,22.81-15.99,22.81-15.99l13.11,13.89l15.73-13.89l15.47,19.4l19.14-26.48
			l17.83,23.85"/>
		<circle cx="212.2" cy="264.71" r="10.5"/>
		<circle cx="282.22" cy="259.44" r="15.77"/>
	</g>
	<rect x="156.27" y="156.31" class="st2" width="25.92" height="25.92"/>
	<rect x="196.58" y="156.31" class="st2" width="25.92" height="25.92"/>
	<rect x="236.89" y="156.31" class="st2" width="25.92" height="25.92"/>
	<rect x="277.19" y="156.31" class="st2" width="25.92" height="25.92"/>
	<rect x="196.58" y="156.31" class="st2" width="25.92" height="25.92"/>
	<rect x="236.89" y="156.31" class="st2" width="25.92" height="25.92"/>
	<rect x="236.89" y="119.74" class="st2" width="25.92" height="25.92"/>
	<rect x="277.19" y="156.31" class="st2" width="25.92" height="25.92"/>
	<rect x="317.5" y="156.31" class="st2" width="25.92" height="25.92"/>
	<path class="st8" d="M132.05,214.72c0-11,8.91-19.91,19.91-19.91h195.79c11,0,19.91,8.91,19.91,19.91H132.05z"/>
</g>
<g class="st0">
	<g class="st2">
		<polyline class="st22" points="151.72,358.72 181.1,358.72 196.66,386.95 215.09,333.94 225.46,360.45 260.03,360.45 
			268.67,382.34 284.23,346.04 300.93,371.97 310.15,360.45 347.6,360.45 		"/>
		<rect x="126.37" y="234.28" class="st22" width="246.58" height="233.91"/>
		<rect x="151.72" y="303.99" class="st22" width="194.73" height="110.62"/>
		<line class="st22" x1="195.41" y1="234.28" x2="169.48" y2="157.36"/>
		<line class="st22" x1="293.35" y1="234.28" x2="293.35" y2="103.78"/>
		<circle class="st22" cx="162.6" cy="137.53" r="24.2"/>
		<circle class="st22" cx="293.35" cy="70.24" r="39.18"/>
		<circle cx="159.16" cy="142.82" r="5.98"/>
		<circle cx="281.23" cy="83.63" r="5.98"/>
	</g>
	<rect x="126.37" y="234.28" class="st8" width="246.58" height="21.32"/>
	<rect x="145.28" y="421" class="st8" width="207.55" height="13.83"/>
</g>
<g class="st0">
	<g class="st2">
		<path d="M249.92,134.56c40.84,0,79.7,15.41,109.43,43.38c26.23,24.69,43.16,57.03,48.5,92.22h-69.4
			c-10.75-39.26-47.01-67.67-88.53-67.67s-77.77,28.4-88.53,67.67h-69.4c5.34-35.19,22.26-67.53,48.5-92.22
			C170.21,149.97,209.07,134.56,249.92,134.56 M407.84,318.54c-5.34,35.19-22.26,67.53-48.5,92.22
			c-29.73,27.97-68.59,43.38-109.43,43.38c-40.84,0-79.71-15.41-109.43-43.38c-26.23-24.69-43.16-57.03-48.5-92.22h69.4
			c10.75,39.26,47.01,67.67,88.53,67.67s77.77-28.4,88.53-67.67H407.84 M249.92,121.74c-91.51,0-166.34,71.22-172.2,161.25h94.08
			c5.52-38.25,38.34-67.67,78.12-67.67s72.6,29.42,78.12,67.67h94.08C416.26,192.96,341.42,121.74,249.92,121.74L249.92,121.74z
			 M422.12,305.72h-94.08c-5.52,38.25-38.34,67.67-78.12,67.67s-72.6-29.42-78.12-67.67H77.71c5.86,90.03,80.69,161.25,172.2,161.25
			C341.42,466.96,416.26,395.75,422.12,305.72L422.12,305.72z"/>
	</g>
	<g class="st2">
		<path d="M249.92,248.25c25.42,0,46.1,20.68,46.1,46.1c0,25.42-20.68,46.1-46.1,46.1s-46.1-20.68-46.1-46.1
			C203.81,268.93,224.49,248.25,249.92,248.25 M249.92,235.42c-32.55,0-58.93,26.38-58.93,58.93s26.38,58.93,58.93,58.93
			s58.93-26.38,58.93-58.93S282.46,235.42,249.92,235.42L249.92,235.42z"/>
	</g>
	<circle class="st2" cx="249.92" cy="294.35" r="20.43"/>
	<circle class="st2" cx="249.92" cy="54.11" r="20.43"/>
	<line class="st23" x1="249.92" y1="127.56" x2="249.92" y2="68.79"/>
	<path class="st8" d="M422.12,282.98c-5.86-90.03-80.69-161.25-172.2-161.25c-91.51,0-166.34,71.22-172.2,161.25
		C173.24,106.24,327.93,106.68,422.12,282.98z"/>
</g>
<g class="st0">
	
		<ellipse transform="matrix(0.3827 -0.9239 0.9239 0.3827 -7.7235 198.5357)" class="st24" cx="144.7" cy="105.05" rx="53.5" ry="53.5"/>
	<path class="st25" d="M131.74,448.66h237.21v-66.18c0-65.4-53.21-118.61-118.61-118.61s-118.61,53.21-118.61,118.61V448.66z"/>
	<path class="st24" d="M355.22,51.54c-29.5,0-53.5,24-53.5,53.5s24,53.5,53.5,53.5c29.5,0,53.5-24,53.5-53.5
		S384.72,51.54,355.22,51.54z"/>
	<path class="st2" d="M144.7,171.38c-36.57,0-66.33-29.75-66.33-66.33s29.75-66.33,66.33-66.33c36.57,0,66.33,29.75,66.33,66.33
		S181.28,171.38,144.7,171.38z M144.7,51.54c-29.5,0-53.5,24-53.5,53.5s24,53.5,53.5,53.5s53.5-24,53.5-53.5
		S174.21,51.54,144.7,51.54z"/>
	<path class="st2" d="M381.77,461.49H118.91v-79c0-72.47,58.96-131.43,131.43-131.43s131.43,58.96,131.43,131.43V461.49z
		 M131.74,448.66h237.21v-66.18c0-65.4-53.21-118.61-118.61-118.61s-118.61,53.21-118.61,118.61V448.66z"/>
	<line class="st5" x1="211.76" y1="262.91" x2="169.66" y2="159.52"/>
	<circle class="st2" cx="144.7" cy="105.05" r="25.35"/>
	<path class="st2" d="M355.22,171.38c-36.57,0-66.33-29.75-66.33-66.33s29.75-66.33,66.33-66.33c36.57,0,66.33,29.75,66.33,66.33
		S391.79,171.38,355.22,171.38z M355.22,51.54c-29.5,0-53.5,24-53.5,53.5s24,53.5,53.5,53.5c29.5,0,53.5-24,53.5-53.5
		S384.72,51.54,355.22,51.54z"/>
	<line class="st5" x1="288.16" y1="262.91" x2="330.26" y2="159.52"/>
	<circle class="st2" cx="355.22" cy="105.05" r="25.35"/>
	<path class="st2" d="M332.74,429.41h-164.8l0-43.21c54.93-27.24,109.86-27.24,164.8,0L332.74,429.41z"/>
	<polygon class="st24" points="221.56,419.36 193.62,419.36 193.62,391.41 221.56,384.64 	"/>
	<polygon class="st9" points="279.75,419.36 307.69,419.36 307.69,391.41 279.75,384.64 	"/>
	<path class="st10" d="M131.79,350.36c81.96-37.7,160.89-36.35,237.1,0"/>
	<path class="st8" d="M375.36,382.48c0-69.05-55.97-125.02-125.02-125.02s-125.02,55.97-125.02,125.02
		C188.43,237.88,324.11,250.84,375.36,382.48z"/>
</g>
<g class="st0">
	<path class="st26" d="M151.96,200.65c-7.76,0-14.07,6.31-14.07,14.07v145.8c0,7.76,6.31,14.07,14.07,14.07h195.79
		c7.76,0,14.07-6.31,14.07-14.07v-145.8c0-7.76-6.31-14.07-14.07-14.07H151.96z"/>
	<path class="st27" d="M347.74,380.43H151.96c-11,0-19.91-8.91-19.91-19.91v-145.8c0-11,8.91-19.91,19.91-19.91h195.79
		c11,0,19.91,8.91,19.91,19.91v145.8C367.65,371.52,358.74,380.43,347.74,380.43z"/>
	<polyline class="st27" points="132.05,289.54 96.66,272.63 74.64,298.97 54.58,278.92 29.42,278.92 	"/>
	<circle class="st28" cx="20.38" cy="278.56" r="10.62"/>
	<polyline class="st27" points="367.65,277.38 403.04,294.29 425.06,267.94 445.11,288 470.28,288 	"/>
	<circle class="st29" cx="479.31" cy="288.36" r="10.62"/>
	<path class="st30" d="M197.81,326.17c0.79,0.26,22.81-15.99,22.81-15.99l13.11,13.89l15.73-13.89l15.47,19.4l19.14-26.48
		l17.83,23.85"/>
	<circle class="st2" cx="212.2" cy="264.71" r="10.5"/>
	<circle class="st2" cx="282.22" cy="259.44" r="15.77"/>
	<rect x="156.27" y="156.31" class="st31" width="25.92" height="25.92"/>
	<rect x="196.58" y="156.31" class="st2" width="25.92" height="25.92"/>
	<rect x="236.89" y="156.31" class="st25" width="25.92" height="25.92"/>
	<rect x="277.19" y="156.31" class="st2" width="25.92" height="25.92"/>
	<rect x="196.58" y="156.31" class="st32" width="25.92" height="25.92"/>
	<rect x="236.89" y="156.31" class="st25" width="25.92" height="25.92"/>
	<rect x="236.89" y="119.74" class="st25" width="25.92" height="25.92"/>
	<rect x="277.19" y="156.31" class="st33" width="25.92" height="25.92"/>
	<rect x="317.5" y="156.31" class="st26" width="25.92" height="25.92"/>
	<path class="st8" d="M132.05,214.72c0-11,8.91-19.91,19.91-19.91h195.79c11,0,19.91,8.91,19.91,19.91H132.05z"/>
</g>
<g class="st0">
	<rect x="132.78" y="240.69" class="st25" width="233.76" height="221.08"/>
	<rect x="158.13" y="310.4" class="st32" width="181.91" height="97.79"/>
	<path class="st24" d="M162.6,119.75c-9.81,0-17.78,7.98-17.78,17.79s7.98,17.79,17.78,17.79s17.79-7.98,17.79-17.79
		S172.41,119.75,162.6,119.75z"/>
	<path class="st34" d="M293.35,37.48c-18.07,0-32.76,14.7-32.76,32.76s14.7,32.76,32.76,32.76c18.07,0,32.76-14.7,32.76-32.76
		S311.41,37.48,293.35,37.48z"/>
	<g class="st2">
		<polyline class="st22" points="151.72,358.72 181.1,358.72 196.66,386.95 215.09,333.94 225.46,360.45 260.03,360.45 
			268.67,382.34 284.23,346.04 300.93,371.97 310.15,360.45 347.6,360.45 		"/>
		<rect x="126.37" y="234.28" class="st22" width="246.58" height="233.91"/>
		<rect x="151.72" y="303.99" class="st22" width="194.73" height="110.62"/>
		<line class="st22" x1="195.41" y1="234.28" x2="169.48" y2="157.36"/>
		<line class="st22" x1="293.35" y1="234.28" x2="293.35" y2="103.78"/>
		<circle class="st22" cx="162.6" cy="137.53" r="24.2"/>
		<circle class="st22" cx="293.35" cy="70.24" r="39.18"/>
		<circle cx="159.16" cy="142.82" r="5.98"/>
		<circle cx="281.23" cy="83.63" r="5.98"/>
	</g>
	<rect x="126.37" y="234.28" class="st8" width="246.58" height="21.32"/>
	<rect x="145.28" y="421" class="st8" width="207.55" height="13.83"/>
</g>
<g class="st0">
	<line class="st35" x1="248.65" y1="153.81" x2="248.65" y2="105.95"/>
	<path class="st26" d="M248.61,189.97c-47.18,0-91.45,10.65-124.65,29.99c-32.14,18.73-49.84,43.26-49.84,69.08
		s17.7,50.35,49.84,69.08c33.19,19.34,77.46,30,124.65,30s91.45-10.65,124.65-30c32.14-18.73,49.84-43.26,49.84-69.08
		s-17.7-50.35-49.84-69.08C340.06,200.62,295.79,189.97,248.61,189.97z"/>
	<ellipse class="st17" cx="248.61" cy="289.05" rx="180.7" ry="105.3"/>
	<path class="st35" d="M136.81,257.12c74.55,15.27,149.08,15.28,223.6,0"/>
	<path class="st19" d="M206.99,186.56c4.54-18.79,21.47-32.75,41.66-32.75c20.19,0,37.12,13.96,41.66,32.76"/>
	<line class="st19" x1="429.31" y1="289.05" x2="462.6" y2="289.05"/>
	<line class="st19" x1="34.62" y1="289.05" x2="67.91" y2="289.05"/>
	<g class="st2">
		<line class="st11" x1="222.55" y1="319.46" x2="222.55" y2="342.52"/>
		<line class="st11" x1="274.67" y1="319.46" x2="274.67" y2="342.52"/>
		<line class="st11" x1="248.65" y1="300.85" x2="248.65" y2="360.78"/>
		<line class="st11" x1="196.25" y1="326.63" x2="196.25" y2="336.06"/>
		<line class="st11" x1="300.89" y1="326.63" x2="300.89" y2="336.06"/>
	</g>
	<circle class="st35" cx="477.39" cy="289.05" r="11.67"/>
	<circle class="st35" cx="22.95" cy="289.05" r="11.67"/>
	
		<rect x="78.3" y="197.32" transform="matrix(0.8367 -0.5477 0.5477 0.8367 -96.2643 94.7359)" class="st2" width="64.83" height="22.91"/>
	
		<rect x="353.81" y="197.32" transform="matrix(-0.8367 -0.5477 0.5477 -0.8367 595.0248 594.9926)" class="st2" width="64.83" height="22.91"/>
	<path class="st36" d="M67.91,289.05c0-58.15,80.9-105.3,180.7-105.3s180.7,47.14,180.7,105.3
		C429.31,182.02,67.91,182.02,67.91,289.05z"/>
	<ellipse class="st17" cx="248.61" cy="289.05" rx="180.7" ry="105.3"/>
	<path class="st26" d="M248.65,158.78c14.5,0,27.35,8.12,33.71,20.55c-11.02-1.18-22.31-1.8-33.74-1.8
		c-11.41,0-22.67,0.61-33.67,1.79C221.3,166.9,234.15,158.78,248.65,158.78z"/>
</g>
<g class="st0">
	<path class="st37" d="M249.92,121.74c-91.51,0-166.34,71.22-172.2,161.25h94.08c5.52-38.25,38.34-67.66,78.12-67.66
		s72.6,29.42,78.12,67.66h94.08C416.26,192.96,341.42,121.74,249.92,121.74L249.92,121.74z"/>
	<path class="st37" d="M422.12,305.72h-94.08c-5.52,38.25-38.34,67.67-78.12,67.67s-72.6-29.42-78.12-67.67H77.71
		c5.86,90.03,80.69,161.25,172.2,161.25C341.42,466.96,416.26,395.75,422.12,305.72L422.12,305.72z"/>
	<path class="st33" d="M249.92,235.42c-32.55,0-58.93,26.38-58.93,58.93s26.38,58.93,58.93,58.93s58.93-26.38,58.93-58.93
		S282.46,235.42,249.92,235.42L249.92,235.42z"/>
	<g class="st2">
		<path d="M249.92,134.56c40.84,0,79.7,15.41,109.43,43.38c26.23,24.69,43.16,57.03,48.5,92.22h-69.4
			c-10.75-39.26-47.01-67.66-88.53-67.66s-77.77,28.4-88.53,67.66h-69.4c5.34-35.19,22.26-67.53,48.5-92.22
			C170.21,149.97,209.07,134.56,249.92,134.56 M407.84,318.54c-5.34,35.19-22.26,67.53-48.5,92.22
			c-29.73,27.97-68.59,43.38-109.43,43.38c-40.84,0-79.71-15.41-109.43-43.38c-26.23-24.69-43.16-57.03-48.5-92.22h69.4
			c10.75,39.26,47.01,67.67,88.53,67.67c41.51,0,77.77-28.4,88.53-67.67H407.84 M249.92,121.74c-91.51,0-166.34,71.22-172.2,161.25
			h94.08c5.52-38.25,38.34-67.66,78.12-67.66s72.6,29.42,78.12,67.66h94.08C416.26,192.96,341.42,121.74,249.92,121.74
			L249.92,121.74z M422.12,305.72h-94.08c-5.52,38.25-38.34,67.67-78.12,67.67s-72.6-29.42-78.12-67.67H77.71
			c5.86,90.03,80.69,161.25,172.2,161.25C341.42,466.96,416.26,395.75,422.12,305.72L422.12,305.72z"/>
	</g>
	<g class="st2">
		<path d="M249.92,248.25c25.42,0,46.1,20.68,46.1,46.1c0,25.42-20.68,46.1-46.1,46.1s-46.1-20.68-46.1-46.1
			C203.81,268.93,224.49,248.25,249.92,248.25 M249.92,235.42c-32.55,0-58.93,26.38-58.93,58.93s26.38,58.93,58.93,58.93
			s58.93-26.38,58.93-58.93S282.46,235.42,249.92,235.42L249.92,235.42z"/>
	</g>
	<circle class="st2" cx="249.92" cy="294.35" r="20.43"/>
	<line class="st23" x1="249.92" y1="127.56" x2="249.92" y2="68.79"/>
	<path class="st8" d="M422.12,282.98c-5.86-90.03-80.69-161.25-172.2-161.25c-91.51,0-166.34,71.22-172.2,161.25
		C173.24,106.24,327.93,106.68,422.12,282.98z"/>
	<path class="st2" d="M249.92,134.56c40.84,0,79.7,15.41,109.43,43.38c26.23,24.69,43.16,57.03,48.5,92.22h-69.4
		c-10.75-39.26-47.01-67.66-88.53-67.66s-77.77,28.4-88.53,67.66h-69.4c5.34-35.19,22.26-67.53,48.5-92.22
		C170.21,149.97,209.07,134.56,249.92,134.56 M407.84,318.54c-5.34,35.19-22.26,67.53-48.5,92.22
		c-29.73,27.97-68.59,43.38-109.43,43.38c-40.84,0-79.71-15.41-109.43-43.38c-26.23-24.69-43.16-57.03-48.5-92.22h69.4
		c10.75,39.26,47.01,67.67,88.53,67.67c41.51,0,77.77-28.4,88.53-67.67H407.84 M249.92,121.74c-91.51,0-166.34,71.22-172.2,161.25
		h94.08c5.52-38.25,38.34-67.66,78.12-67.66s72.6,29.42,78.12,67.66h94.08C416.26,192.96,341.42,121.74,249.92,121.74L249.92,121.74
		z M422.12,305.72h-94.08c-5.52,38.25-38.34,67.67-78.12,67.67s-72.6-29.42-78.12-67.67H77.71c5.86,90.03,80.69,161.25,172.2,161.25
		C341.42,466.96,416.26,395.75,422.12,305.72L422.12,305.72z"/>
	<path class="st2" d="M249.92,248.25c25.42,0,46.1,20.68,46.1,46.1c0,25.42-20.68,46.1-46.1,46.1s-46.1-20.68-46.1-46.1
		C203.81,268.93,224.49,248.25,249.92,248.25 M249.92,235.42c-32.55,0-58.93,26.38-58.93,58.93s26.38,58.93,58.93,58.93
		s58.93-26.38,58.93-58.93S282.46,235.42,249.92,235.42L249.92,235.42z"/>
	<circle class="st33" cx="249.92" cy="54.11" r="20.43"/>
</g>
<g class="st0">
	<path class="st38" d="M95.11,408.9c-8.79,0-15.94,7.15-15.94,15.94v10.06c0,8.79,7.15,15.94,15.94,15.94h290.1
		c8.79,0,15.93-7.15,15.93-15.94v-10.06c0-8.79-7.15-15.94-15.93-15.94H95.11z"/>
	<path class="st34" d="M90.15,396.84h300.47V240.43c0-82.84-67.39-150.23-150.23-150.23c-82.84,0-150.23,67.39-150.23,150.23V396.84
		z"/>
	<circle class="st9" cx="239.16" cy="234.28" r="65.57"/>
	<path class="st2" d="M385.21,462.89H95.11c-15.43,0-27.99-12.56-27.99-27.99v-10.06c0-15.44,12.56-27.99,27.99-27.99h290.1
		c15.43,0,27.99,12.56,27.99,27.99v10.06C413.2,450.34,400.64,462.89,385.21,462.89z M95.11,408.9c-8.79,0-15.94,7.15-15.94,15.94
		v10.06c0,8.79,7.15,15.94,15.94,15.94h290.1c8.79,0,15.93-7.15,15.93-15.94v-10.06c0-8.79-7.15-15.94-15.93-15.94H95.11z"/>
	<path class="st2" d="M264.48,233.73c0,13.68-11.09,24.76-24.77,24.76c-13.68,0-24.76-11.08-24.76-24.76
		c0-13.67,11.08-24.76,24.76-24.76C253.4,208.96,264.48,220.05,264.48,233.73z"/>
	<g class="st2">
		<path class="st39" d="M185.13,355.46c0,7.87-6.37,14.25-14.25,14.25s-14.25-6.38-14.25-14.25c0-7.87,6.38-14.25,14.25-14.25
			S185.13,347.58,185.13,355.46z"/>
		<path class="st39" d="M221.75,355.46c0,7.87-6.37,14.25-14.24,14.25c-7.87,0-14.25-6.38-14.25-14.25
			c0-7.87,6.38-14.25,14.25-14.25C215.38,341.21,221.75,347.58,221.75,355.46z"/>
		<path class="st39" d="M258.39,355.46c0,7.87-6.37,14.25-14.24,14.25c-7.87,0-14.25-6.38-14.25-14.25
			c0-7.87,6.38-14.25,14.25-14.25C252.02,341.21,258.39,347.58,258.39,355.46z"/>
		<path class="st39" d="M295.03,355.46c0,7.87-6.37,14.25-14.24,14.25c-7.87,0-14.25-6.38-14.25-14.25
			c0-7.87,6.38-14.25,14.25-14.25C288.65,341.21,295.03,347.58,295.03,355.46z"/>
		<path class="st39" d="M331.66,355.46c0,7.87-6.38,14.25-14.25,14.25c-7.87,0-14.25-6.38-14.25-14.25
			c0-7.87,6.38-14.25,14.25-14.25C325.28,341.21,331.66,347.58,331.66,355.46z"/>
	</g>
	<line class="st16" x1="104.03" y1="164.13" x2="36.09" y2="122.05"/>
	<line class="st16" x1="396.65" y1="304.02" x2="464.58" y2="261.94"/>
	<circle class="st16" cx="239.16" cy="234.28" r="71.6"/>
	<path class="st16" d="M84.13,240.43v162.44h312.52V240.43c0-86.3-69.96-156.26-156.26-156.26S84.13,154.13,84.13,240.43z"/>
	<rect x="58.14" y="330.22" class="st2" width="25.99" height="52.87"/>
	<polyline class="st16" points="322.17,151.33 349.62,128.16 346.37,84.57 378.05,88.53 391.86,61.55 425.16,66.27 	"/>
	<line class="st16" x1="170.88" y1="100.45" x2="205.08" y2="171.3"/>
	<line class="st16" x1="305.22" y1="261.94" x2="396.65" y2="277.89"/>
	<path class="st8" d="M396.65,240.43c0-86.3-69.96-156.26-156.26-156.26S84.13,154.13,84.13,240.43
		C156.63,56.94,331.66,67.77,396.65,240.43z"/>
	<circle class="st16" cx="239.16" cy="234.28" r="71.6"/>
	<line class="st16" x1="305.22" y1="261.94" x2="396.65" y2="277.89"/>
	<circle class="st16" cx="239.16" cy="234.28" r="71.6"/>
	<line class="st16" x1="305.22" y1="261.94" x2="396.65" y2="277.89"/>
	<path class="st8" d="M395.61,283.83l-86.89-15.16c-12.11,24.39-36.66,41.52-65.3,43.08c-1.41,0.09-2.83,0.15-4.27,0.15
		c-40.77,0-74.28-31.6-77.37-71.6c-0.15,1.99-0.26,4-0.26,6.03c0,42.8,34.82,77.62,77.62,77.62c30.46,0,56.86-17.64,69.57-43.23
		l86.89,15.16l2.07-11.88l-2.04-0.36L395.61,283.83z"/>
	<circle class="st34" cx="23.17" cy="114.76" r="18.93"/>
	<circle class="st38" cx="477.51" cy="254.65" r="18.93"/>
	<circle class="st38" cx="434.46" cy="61.55" r="18.93"/>
</g>
<g class="st0">
	<polygon class="st34" points="94.21,390.3 359.66,421.6 444.16,79.75 55.11,171.95 	"/>
	<path class="st40" d="M181.97,258.58c0,4.42-1.07,8.59-2.94,12.29l-13.68-11.85l13.98-12.12
		C181.02,250.44,181.97,254.4,181.97,258.58z"/>
	<path class="st41" d="M171.24,236.93l-15.69,13.59l-16.44-14.25c4.43-3.11,9.81-4.94,15.62-4.94
		C160.94,231.34,166.66,233.43,171.24,236.93z"/>
	<path class="st33" d="M130.96,271.84c-2.2-3.93-3.46-8.45-3.46-13.27c0-4.57,1.14-8.89,3.14-12.67l15.13,13.11L130.96,271.84z"/>
	<path class="st26" d="M139.67,281.26l15.88-13.76l15.15,13.12c-4.49,3.26-10.01,5.19-15.97,5.19
		C149.17,285.81,143.99,284.13,139.67,281.26z"/>
	<path class="st9" d="M279.17,196.11c-33.82,0-61.34,27.52-61.34,61.34c0,33.82,27.52,61.34,61.34,61.34
		c33.82,0,61.34-27.52,61.34-61.34C340.5,223.62,312.99,196.11,279.17,196.11z"/>
	<polygon class="st5" points="452.91,71.09 364.53,428.63 88.74,396.11 47.73,167.11 	"/>
	
		<rect x="150.16" y="348.34" transform="matrix(0.9939 0.1103 -0.1103 0.9939 41.2301 -16.1309)" class="st2" width="32.52" height="32.52"/>
	
		<rect x="192.92" y="353.09" transform="matrix(0.9939 0.1103 -0.1103 0.9939 42.0144 -20.8182)" class="st2" width="32.52" height="32.52"/>
	
		<rect x="235.67" y="357.83" transform="matrix(0.9939 0.1103 -0.1103 0.9939 42.7986 -25.5054)" class="st2" width="32.52" height="32.52"/>
	
		<rect x="278.43" y="362.58" transform="matrix(0.9939 0.1103 -0.1103 0.9939 43.5829 -30.1927)" class="st26" width="32.52" height="32.52"/>
	<circle class="st5" cx="154.73" cy="258.57" r="33.65"/>
	<circle class="st5" cx="279.17" cy="257.45" r="67.75"/>
	<circle class="st2" cx="284.59" cy="256.99" r="23.49"/>
	
		<rect x="388.47" y="323.18" transform="matrix(0.9712 0.2384 -0.2384 0.9712 94.3626 -85.8279)" class="st2" width="27.07" height="48.03"/>
	
		<rect x="51.03" y="307.27" transform="matrix(-0.9822 0.1876 -0.1876 -0.9822 190.1416 644.5709)" class="st2" width="27.07" height="48.03"/>
	<polygon class="st41" points="357.3,123.1 414.44,109.57 401.68,161.16 	"/>
	<line class="st5" x1="180.96" y1="237" x2="130.15" y2="281.02"/>
	<line class="st5" x1="130.15" y1="237" x2="180.96" y2="281.02"/>
	<polygon class="st8" points="47.73,167.11 452.91,71.09 446.39,97.48 53.88,201.47 	"/>
	<circle class="st5" cx="279.17" cy="257.45" r="67.75"/>
	<path class="st8" d="M282.32,331.53c-1.04,0.05-2.1,0.08-3.15,0.08c-1.06,0-2.11-0.03-3.15-0.08
		c-37.29-1.57-67.54-30.8-70.71-67.67c-0.18,2.12-0.3,4.25-0.3,6.41c0,40.89,33.27,74.16,74.16,74.16
		c40.89,0,74.16-33.27,74.16-74.16c0-2.16-0.11-4.3-0.3-6.41C349.86,300.72,319.61,329.96,282.32,331.53z"/>
	<path class="st2" d="M369.4,435.66L83.27,401.92L40.35,162.27l421.31-99.84L369.4,435.66z M94.21,390.3l265.45,31.3l84.5-341.84
		L55.11,171.95L94.21,390.3z"/>
	<path class="st2" d="M154.73,218.51c-22.09,0-40.06,17.97-40.06,40.06c0,22.09,17.97,40.06,40.06,40.06s40.06-17.97,40.06-40.06
		C194.79,236.48,176.82,218.51,154.73,218.51z M181.97,258.58c0,4.42-1.07,8.59-2.94,12.29l-13.68-11.85l13.98-12.12
		C181.02,250.44,181.97,254.4,181.97,258.58z M171.24,236.93l-15.69,13.59l-16.44-14.25c4.43-3.11,9.81-4.94,15.62-4.94
		C160.94,231.34,166.66,233.43,171.24,236.93z M130.96,271.84c-2.2-3.93-3.46-8.45-3.46-13.27c0-4.57,1.14-8.89,3.14-12.67
		l15.13,13.11L130.96,271.84z M139.67,281.26l15.88-13.76l15.15,13.12c-4.49,3.26-10.01,5.19-15.97,5.19
		C149.17,285.81,143.99,284.13,139.67,281.26z"/>
	<path class="st2" d="M279.17,331.61c-40.89,0-74.16-33.27-74.16-74.16c0-40.89,33.27-74.16,74.16-74.16
		c40.89,0,74.16,33.27,74.16,74.16C353.33,298.34,320.06,331.61,279.17,331.61z M279.17,196.11c-33.82,0-61.34,27.52-61.34,61.34
		c0,33.82,27.52,61.34,61.34,61.34c33.82,0,61.34-27.52,61.34-61.34C340.5,223.62,312.99,196.11,279.17,196.11z"/>
</g>
<g>
	<path class="st42" d="M385.95,233.78l-81.35,42.85c-12.17-15.2-30.87-24.96-51.82-24.96c-9.75,0-19,2.13-27.35,5.92l-33.88-93.08
		c18.15-7.54,38.04-11.72,58.88-11.72C308.94,152.79,359.92,185.6,385.95,233.78z"/>
	<circle class="st39" cx="252.78" cy="318.04" r="53.55"/>
	<path class="st42" d="M250.44,460.61c-84.87,0-153.91-69.04-153.91-153.91c0-59.45,33.89-111.14,83.36-136.76l34.28,94.17
		c-16.79,12.06-27.76,31.73-27.76,53.94c0,36.6,29.78,66.38,66.38,66.38s66.38-29.78,66.38-66.38c0-11.04-2.73-21.46-7.52-30.63
		l79.92-42.1c8.22,18.82,12.79,39.58,12.79,61.39C404.35,391.57,335.31,460.61,250.44,460.61z"/>
	<polygon points="94.62,258.07 70.96,270.07 67.86,313.12 88.06,324.93 	"/>
	<polygon points="412.38,295.64 432.07,313.4 423.81,355.76 401.23,361.89 	"/>
	<circle class="st22" cx="252.78" cy="318.04" r="59.97"/>
	<circle cx="255.48" cy="320.73" r="14.03"/>
	<line class="st43" x1="207.79" y1="411.43" x2="277.97" y2="421.76"/>
	<circle class="st22" cx="250.44" cy="306.7" r="160.33"/>
	<path d="M327.47,127.1c-15.52-5.8-32.35-1.36-43.09,9.93c25.58,5.31,49,16.52,68.84,32.11
		C355.25,151.29,345.05,133.68,327.47,127.1z M362.46,33.5c-9.54-3.56-20.16,1.28-23.72,10.81c-2.91,7.79-0.15,16.25,6.14,21.05
		l-26.82,55.34c3.65,0.29,7.31,1.05,10.91,2.39c3.6,1.35,6.86,3.18,9.81,5.35l16.06-59.37c7.9,0.5,15.53-4.06,18.44-11.86
		C376.83,47.69,371.99,37.07,362.46,33.5z"/>
	<line class="st22" x1="183.46" y1="161.01" x2="221.9" y2="266.63"/>
	<line class="st22" x1="394.6" y1="236.47" x2="302.73" y2="284.86"/>
	<path class="st44" d="M410.76,306.7c0-88.55-71.78-160.33-160.33-160.33S90.11,218.16,90.11,306.7
		C158.2,121.77,346.25,141.69,410.76,306.7z"/>
	<circle class="st22" cx="252.78" cy="318.04" r="59.97"/>
	<path class="st44" d="M252.78,384.42c-34.44,0-62.83-26.36-66.06-59.97c-0.2,2.11-0.32,4.25-0.32,6.41
		c0,36.6,29.78,66.38,66.38,66.38s66.38-29.78,66.38-66.38c0-2.16-0.11-4.3-0.32-6.41C315.61,358.06,287.22,384.42,252.78,384.42z"
		/>
	<circle class="st42" cx="356.27" cy="50.17" r="9.33"/>
</g>
<g class="st0">
	<path class="st32" d="M85.91,201.42c-11.24,0-20.38,9.14-20.38,20.38v172.06c0,11.24,9.14,20.38,20.38,20.38h327.37
		c11.24,0,20.38-9.14,20.38-20.38V221.8c0-11.24-9.14-20.38-20.38-20.38H85.91z"/>
	<path class="st2" d="M217.31,183.36c0-13.01,14.09-23.56,31.47-23.56c17.38,0,31.47,10.55,31.47,23.56H217.31z"/>
	<path class="st5" d="M413.28,420.65H85.91c-14.8,0-26.79-11.99-26.79-26.79V221.8c0-14.8,11.99-26.79,26.79-26.79h327.37
		c14.8,0,26.79,11.99,26.79,26.79v172.06C440.07,408.66,428.07,420.65,413.28,420.65z"/>
	<path class="st2" d="M341.25,252.42H156.31c-18.64,0-33.75,15.11-33.75,33.76v11.95c0,18.64,15.11,33.76,33.75,33.76h184.94
		c18.64,0,33.75-15.11,33.75-33.76v-11.95C375.01,267.54,359.89,252.42,341.25,252.42z M168.1,320.85c-15.85,0-28.7-12.84-28.7-28.7
		c0-15.85,12.85-28.7,28.7-28.7c15.85,0,28.71,12.85,28.71,28.7C196.8,308.01,183.94,320.85,168.1,320.85z M329.47,320.85
		c-15.85,0-28.7-12.84-28.7-28.7c0-15.85,12.86-28.7,28.7-28.7c15.85,0,28.71,12.85,28.71,28.7
		C358.17,308.01,345.32,320.85,329.47,320.85z"/>
	<path class="st2" d="M168.1,270.47c-11.99,0-21.7,9.71-21.7,21.69c0,11.98,9.71,21.69,21.7,21.69c11.98,0,21.69-9.71,21.69-21.69
		C189.79,280.17,180.07,270.47,168.1,270.47z M168.09,300.63c-4.68,0-8.48-3.79-8.48-8.48s3.8-8.48,8.48-8.48
		c4.69,0,8.48,3.79,8.48,8.48S172.78,300.63,168.09,300.63z M329.47,270.47c-11.99,0-21.69,9.71-21.69,21.69
		c0,11.98,9.71,21.69,21.69,21.69c11.98,0,21.69-9.71,21.69-21.69C351.16,280.17,341.45,270.47,329.47,270.47z M329.47,300.63
		c-4.68,0-8.48-3.79-8.48-8.48s3.8-8.48,8.48-8.48c4.69,0,8.48,3.79,8.48,8.48S334.15,300.63,329.47,300.63z"/>
	<g class="st2">
		<rect x="158.06" y="363.29" width="23.93" height="23.93"/>
		<rect x="197.44" y="363.29" class="st39" width="23.93" height="23.93"/>
		<rect x="236.82" y="363.29" width="23.93" height="23.93"/>
		<rect x="276.2" y="363.29" width="23.93" height="23.93"/>
		<rect x="315.58" y="363.29" width="23.93" height="23.93"/>
	</g>
	<line class="st5" x1="235.85" y1="171.58" x2="195.23" y2="103.72"/>
	<circle class="st32" cx="189.85" cy="95.26" r="16.03"/>
	<line class="st5" x1="261.72" y1="171.58" x2="302.33" y2="103.72"/>
	<circle class="st32" cx="307.72" cy="95.26" r="16.03"/>
	<path class="st8" d="M59.12,221.8c0-14.8,11.99-26.79,26.79-26.79h327.37c14.8,0,26.79,11.99,26.79,26.79H59.12z"/>
	<path class="st8" d="M341.25,331.89H156.31c-18.64,0-33.75-15.11-33.75-33.76v8.48c0,18.64,15.11,33.76,33.75,33.76h184.94
		c18.64,0,33.75-15.11,33.75-33.76v-8.48C375.01,316.77,359.89,331.89,341.25,331.89z"/>
	<path class="st9" d="M168.09,300.63c-4.68,0-8.48-3.79-8.48-8.48s3.8-8.48,8.48-8.48c4.69,0,8.48,3.79,8.48,8.48
		S172.78,300.63,168.09,300.63z"/>
	<path class="st9" d="M329.47,300.63c-4.68,0-8.48-3.79-8.48-8.48s3.8-8.48,8.48-8.48c4.69,0,8.48,3.79,8.48,8.48
		S334.15,300.63,329.47,300.63z"/>
</g>
<g class="st0">
	<path class="st45" d="M250.21,175.39c-27.31,0-54.63,1.75-81.75,5.24c-16.81,2.17-31.3,14.04-36.9,30.26
		c-18.03,52.22-28.47,107.12-31.03,163.16c-0.14,3.09,0.97,6.04,3.12,8.29c2.18,2.28,5.12,3.54,8.28,3.54H388.5
		c3.16,0,6.09-1.26,8.28-3.54c2.15-2.25,3.26-5.2,3.12-8.29c-2.56-56.04-13-110.94-31.03-163.16c-5.6-16.22-20.08-28.1-36.9-30.26
		C304.84,177.13,277.53,175.39,250.21,175.39z"/>
	<rect x="215.15" y="339.3" class="st9" width="70.13" height="15.44"/>
	<path class="st9" d="M175.1,248.11c-11.04,0-20.01,8.98-20.01,20.01c0,11.04,8.98,20.01,20.01,20.01h150.23
		c11.04,0,20.01-8.98,20.01-20.01c0-11.04-8.98-20.01-20.01-20.01H175.1z"/>
	<path class="st2" d="M388.5,398.71H111.93c-6.6,0-12.99-2.74-17.55-7.51c-4.6-4.81-6.96-11.11-6.66-17.74
		c2.62-57.27,13.29-113.38,31.72-166.76c7.29-21.11,25.44-35.97,47.38-38.8c55.34-7.12,111.45-7.12,166.79,0
		c21.94,2.83,40.09,17.69,47.38,38.8c18.43,53.38,29.1,109.49,31.72,166.76c0.3,6.63-2.06,12.92-6.66,17.74
		C401.49,395.97,395.09,398.71,388.5,398.71z M250.21,175.39c-27.31,0-54.63,1.75-81.75,5.24c-16.81,2.17-31.3,14.04-36.9,30.26
		c-18.03,52.22-28.47,107.12-31.03,163.16c-0.14,3.09,0.97,6.04,3.12,8.29c2.18,2.28,5.12,3.54,8.28,3.54H388.5
		c3.16,0,6.09-1.26,8.28-3.54c2.15-2.25,3.26-5.2,3.12-8.29c-2.56-56.04-13-110.94-31.03-163.16c-5.6-16.22-20.08-28.1-36.9-30.26
		C304.84,177.13,277.53,175.39,250.21,175.39z"/>
	<path class="st2" d="M325.33,300.96H175.1c-18.11,0-32.84-14.73-32.84-32.84c0-18.11,14.73-32.84,32.84-32.84h150.23
		c18.11,0,32.84,14.73,32.84,32.84C358.17,286.23,343.44,300.96,325.33,300.96z M175.1,248.11c-11.04,0-20.01,8.98-20.01,20.01
		c0,11.04,8.98,20.01,20.01,20.01h150.23c11.04,0,20.01-8.98,20.01-20.01c0-11.04-8.98-20.01-20.01-20.01H175.1z"/>
	<path class="st4" d="M400.88,328.16L400.88,328.16l-18.15-88.18h18.15c11.92,0,21.59,9.67,21.59,21.59v45
		C422.47,318.5,412.8,328.16,400.88,328.16z"/>
	<path class="st4" d="M99.55,328.16L99.55,328.16c-11.92,0-21.59-9.67-21.59-21.59v-45c0-11.92,9.67-21.59,21.59-21.59h18.15
		L99.55,328.16z"/>
	<path class="st46" d="M323.89,276.12H176.54c-4.41,0-7.99-3.58-7.99-7.99l0,0c0-4.41,3.58-7.99,7.99-7.99h147.34
		c4.41,0,7.99,3.58,7.99,7.99l0,0C331.88,272.54,328.3,276.12,323.89,276.12z"/>
	<rect x="391.13" y="148.65" class="st4" width="12.1" height="101.11"/>
	<rect x="97.2" y="148.65" class="st4" width="12.1" height="101.11"/>
	<path class="st2" d="M299.14,368.6h-97.84v-43.16h97.84V368.6z M215.15,354.74h70.13V339.3h-70.13V354.74z"/>
	<rect x="226.52" y="337.38" class="st4" width="11.23" height="19.28"/>
	<rect x="244.56" y="337.38" class="st4" width="11.23" height="19.28"/>
	<rect x="262.67" y="337.38" class="st4" width="11.23" height="19.28"/>
	<path class="st7" d="M374.93,208.8c-6.4-18.55-22.68-32.03-42.14-34.53c-55.05-7.09-110.1-7.09-165.15,0
		c-19.46,2.51-35.74,15.98-42.14,34.53C125.5,177.95,374.93,177.95,374.93,208.8z"/>
	<path class="st8" d="M325.33,300.96H175.1c-16.75,0-30.59-12.62-32.57-28.84c-0.16,1.31-0.27,2.64-0.27,4
		c0,18.11,14.73,32.84,32.84,32.84h150.23c18.11,0,32.84-14.73,32.84-32.84c0-1.36-0.11-2.68-0.27-4
		C355.92,288.34,342.08,300.96,325.33,300.96z"/>
	<circle class="st46" cx="103.25" cy="130.74" r="22.27"/>
	<circle class="st46" cx="397.18" cy="130.74" r="22.27"/>
</g>
<g class="st0">
	<path class="st47" d="M252.38,188.91c45.63,0,158.42,18.51,231.81,141.45c-45.5,64.15-108.64,104.18-194.29,113.44h-75.04
		c-85.64-9.26-148.79-49.29-194.29-113.44C93.96,207.42,206.75,188.91,252.38,188.91"/>
	<path class="st2" d="M154.45,261.68c-30.15,0-54.68,24.53-54.68,54.68s24.53,54.68,54.68,54.68s54.68-24.53,54.68-54.68
		S184.6,261.68,154.45,261.68L154.45,261.68z"/>
	<path class="st9" d="M154.45,261.68c-30.15,0-54.68,24.53-54.68,54.68s24.53,54.68,54.68,54.68s54.68-24.53,54.68-54.68
		S184.6,261.68,154.45,261.68L154.45,261.68z"/>
	<path class="st9" d="M350.31,261.68c-30.15,0-54.68,24.53-54.68,54.68s24.53,54.68,54.68,54.68s54.68-24.53,54.68-54.68
		S380.46,261.68,350.31,261.68L350.31,261.68z"/>
	<g class="st2">
		<path d="M154.45,274.12c23.33,0,42.24,18.91,42.24,42.24c0,23.33-18.91,42.24-42.24,42.24s-42.24-18.91-42.24-42.24
			C112.21,293.03,131.12,274.12,154.45,274.12 M154.45,261.68c-30.15,0-54.68,24.53-54.68,54.68s24.53,54.68,54.68,54.68
			s54.68-24.53,54.68-54.68S184.6,261.68,154.45,261.68L154.45,261.68z"/>
	</g>
	<circle class="st2" cx="154.45" cy="313.51" r="23.33"/>
	<line class="st18" x1="213.41" y1="416.36" x2="291.35" y2="416.36"/>
	<path class="st2" d="M28.49,315.04c-5.02,0.86-12.98,13.99-12.98,13.99s6.66,10.5,8.96,10.09c27.92-4.94,60.97-9.59,89-12.7
		c-0.79-3.23-1.26-6.59-1.26-10.06c0-4.61,0.76-9.04,2.13-13.19C87.37,306.08,55.36,310.45,28.49,315.04z M192.01,297.1
		c2.97,5.78,4.68,12.31,4.68,19.26c0,1.2-0.08,2.38-0.18,3.56c18.62-0.86,37.25-1.32,55.87-1.37v-23.04
		C232.25,295.58,212.13,296.12,192.01,297.1z"/>
	<g class="st2">
		<path d="M252.38,188.91c45.63,0,158.42,18.51,231.81,141.45c-45.5,64.15-108.64,104.18-194.29,113.44h-75.04
			c-85.64-9.26-148.79-49.29-194.29-113.44C93.96,207.42,206.75,188.91,252.38,188.91 M252.38,176.47
			c-16.6,0-60.61,2.51-110.73,25.78c-24.76,11.49-47.82,26.57-68.53,44.81c-24.2,21.31-45.47,47.19-63.22,76.93l-4.15,6.96
			l4.69,6.61c24.14,34.03,53.03,61.22,85.87,80.79c34.19,20.38,73.63,33.1,117.23,37.82l0.67,0.07h0.67h75.04h0.67l0.67-0.07
			c43.6-4.72,83.05-17.44,117.23-37.82c32.84-19.58,61.73-46.76,85.87-80.79l4.69-6.61l-4.15-6.96
			c-17.75-29.74-39.02-55.62-63.22-76.93c-20.72-18.24-43.77-33.31-68.53-44.81C312.99,178.98,268.97,176.47,252.38,176.47
			L252.38,176.47z"/>
	</g>
	<g class="st2">
		<path d="M350.31,274.12c23.33,0,42.24,18.91,42.24,42.24c0,23.33-18.91,42.24-42.24,42.24c-23.33,0-42.24-18.91-42.24-42.24
			C308.07,293.03,326.98,274.12,350.31,274.12 M350.31,261.68c-30.15,0-54.68,24.53-54.68,54.68s24.53,54.68,54.68,54.68
			s54.68-24.53,54.68-54.68S380.46,261.68,350.31,261.68L350.31,261.68z"/>
	</g>
	<circle class="st2" cx="350.31" cy="313.51" r="23.33"/>
	<path class="st2" d="M390.41,303.16c1.37,4.15,2.13,8.58,2.13,13.19c0,3.47-0.47,6.83-1.26,10.06
		c28.03,3.11,61.22,8.24,89.14,13.18c2.3,0.41,3.76-11.21,3.76-11.21s1.78-11.78-3.24-12.63
		C454.07,311.17,417.39,306.08,390.41,303.16z M252.38,295.51v23.04c18.63,0.05,37.25,0.51,55.87,1.37
		c-0.1-1.18-0.18-2.36-0.18-3.56c0-6.94,1.71-13.48,4.68-19.26C292.63,296.12,272.5,295.58,252.38,295.51z"/>
	<path class="st17" d="M251.16,185.42c0,0-7.49-126.23,85.75-117.1"/>
	<circle class="st48" cx="351.66" cy="69.66" r="13.46"/>
	<line class="st17" x1="350.31" y1="366.22" x2="350.31" y2="437.53"/>
	<line class="st17" x1="350.31" y1="265.69" x2="350.31" y2="203.66"/>
	<line class="st17" x1="154.45" y1="366.22" x2="154.45" y2="437.53"/>
	<line class="st17" x1="154.45" y1="265.69" x2="154.45" y2="203.66"/>
	<path class="st8" d="M484.18,330.36C410.8,207.42,298.01,188.91,252.38,188.91S93.96,207.42,20.57,330.36
		C179.8,169.87,334.2,174.59,484.18,330.36z"/>
	<path class="st47" d="M351.67,60.81c-4.88,0-8.85,3.97-8.85,8.85s3.97,8.85,8.85,8.85s8.85-3.97,8.85-8.85
		S356.55,60.81,351.67,60.81z"/>
</g>
<g class="st0">
	<path class="st24" d="M213.5,137.03c0-20.07,16.33-36.4,36.4-36.4c20.07,0,36.4,16.33,36.4,36.4v27.7H213.5V137.03z"/>
	<path class="st37" d="M198.28,191.15c0-7.5,6.1-13.6,13.6-13.6h76.07c7.5,0,13.6,6.1,13.6,13.6v4.66H198.28V191.15z"/>
	<path class="st37" d="M408.56,396.8c-1.16,1.75-3.02,2.76-5.12,2.76H96.38c-2.1,0-3.97-1.01-5.12-2.76s-1.34-3.87-0.52-5.8
		l76.59-178.65c0.97-2.26,3.18-3.72,5.64-3.72h153.88c2.46,0,4.67,1.46,5.64,3.72L409.08,391
		C409.91,392.93,409.72,395.04,408.56,396.8z"/>
	<path class="st1" d="M326.85,202.22H172.97c-5.02,0-9.56,2.99-11.53,7.6L84.84,388.48c-3.55,8.28,2.52,17.49,11.53,17.49h307.06
		c9.01,0,15.08-9.21,11.53-17.49l-76.59-178.65C336.4,205.21,331.86,202.22,326.85,202.22z"/>
	<g class="st2">
		<path d="M309.92,262.26v59.16H189.89v-59.16H309.92 M320.05,252.13h-10.13H189.89h-10.13v10.13v59.16v10.13h10.13h120.03h10.13
			v-10.13v-59.16V252.13L320.05,252.13z"/>
	</g>
	<polygon class="st24" points="227.94,262.26 189.89,317.71 189.89,321.42 217.98,321.42 258.57,262.26 	"/>
	<polygon class="st24" points="309.92,262.26 281.84,262.26 241.24,321.42 271.88,321.42 309.92,265.97 	"/>
	<rect x="206.84" y="357.52" class="st4" width="86.13" height="13.54"/>
	<path class="st5" d="M287.94,171.14h-76.07c-11.05,0-20.01,8.96-20.01,20.01v11.07h116.09v-11.07
		C307.95,180.1,298.99,171.14,287.94,171.14z"/>
	<path class="st5" d="M292.72,137.03c0-23.65-19.17-42.82-42.82-42.82s-42.82,19.17-42.82,42.82v34.11h85.63V137.03z"/>
	<line class="st6" x1="250.22" y1="166.67" x2="249.36" y2="127.49"/>
	<path class="st6" d="M250.18,164.94c0,0-2.99-24.81,10.7-30.12"/>
	<path class="st6" d="M249.63,164.94c0,0,2.99-24.81-10.7-30.12"/>
	<circle class="st2" cx="196.69" cy="364.29" r="12.96"/>
	<circle class="st2" cx="303.13" cy="364.29" r="12.96"/>
	<path class="st7" d="M338.38,209.82c-1.98-4.61-6.51-7.6-11.53-7.6H172.97c-5.02,0-9.56,2.99-11.53,7.6l-3.85,8.99h184.65
		L338.38,209.82z"/>
	<rect x="189.89" y="262.26" class="st8" width="120.03" height="13.45"/>
	<path class="st1" d="M326.85,202.22H172.97c-5.02,0-9.56,2.99-11.53,7.6L84.84,388.48c-3.55,8.28,2.52,17.49,11.53,17.49h307.06
		c9.01,0,15.08-9.21,11.53-17.49l-76.59-178.65C336.4,205.21,331.86,202.22,326.85,202.22z"/>
	<g class="st2">
		<path d="M309.92,262.26v59.16H189.89v-59.16H309.92 M320.05,252.13h-10.13H189.89h-10.13v10.13v59.16v10.13h10.13h120.03h10.13
			v-10.13v-59.16V252.13L320.05,252.13z"/>
	</g>
	<path class="st5" d="M287.94,171.14h-76.07c-11.05,0-20.01,8.96-20.01,20.01v11.07h116.09v-11.07
		C307.95,180.1,298.99,171.14,287.94,171.14z"/>
	<path class="st5" d="M292.72,137.03c0-23.65-19.17-42.82-42.82-42.82s-42.82,19.17-42.82,42.82v34.11h85.63V137.03z"/>
</g>
</svg>
